<svg xmlns="http://www.w3.org/2000/svg" width="128" height="128" viewBox="0 0 128 128"><path fill="#C2B089" d="M21 107.1l.1.2c12.2 2.5 24.5 3.9 36.7 4.2-4.9-.7-9.3-2.3-13-4.8-.1-.1-.3-.2-.4-.2-.4 0-.8-.1-1.1-.1-8.5-.7-16.2-2-23-3.8-.7-.2-1.3-.3-1.9-.5.6 1.5 1.3 2.9 2.2 4.2 0 .3.2.6.4.8m86.5-.7c.9-1.4 1.7-2.8 2.2-4.2l-1.9.5c-6.9 1.8-14.5 3-23 3.8l-1.2.1c-.1.1-.3.2-.4.2-3.7 2.4-8 4-12.8 4.7 12.2-.4 24.4-1.9 36.7-4.5l.4-.6z"/><path fill="#E0D1AF" d="M107 107.1l.1-.1c-12.2 2.6-24.5 4.1-36.7 4.5h-.3c-2 .3-4 .4-6.2.4-1.6 0-3.1-.1-4.5-.2l-1.7-.2c-12.2-.3-24.5-1.7-36.7-4.2 2.3 3.1 5.4 6 9.5 8.6 8.1 5.3 17.7 8.2 28.9 8.8 1.5.1 3 .1 4.5.1 2.1 0 4.2-.1 6.2-.2 10.4-.8 19.5-3.8 27.2-8.8 4.2-2.6 7.5-5.5 9.7-8.7m4.2-33.1c-.1-.3-.2-.5-.2-.8-.1-.6-.2-1-.2-1.5-.9-.6-1.9-1.1-2.9-1.7-9-4.9-19.4-7.9-31.2-9.2-4.1-.4-8.3-.7-12.7-.7-4.4 0-8.6.2-12.8.7-11.8 1.3-22.1 4.3-31.1 9.2-1 .5-2 1.1-2.9 1.7 0 .4 0 .9-.2 1.4-.1.2-.1.5-.2.8-.6 1.7-1.7 3.3-3.2 4.8-1.6 1.6-3.2 2.7-4.8 3.2-1.6.6-2.8.5-3.6-.2l-.1-.1-.2-.2c-.6 1-1.1 2-1.5 3.1.2.2.4.4.7.5 2.6 2.1 8 4 16.2 5.6 12.1 2.5 26.8 3.7 43.9 3.7 17.1 0 31.8-1.2 43.9-3.7 8.2-1.6 13.6-3.5 16.3-5.6.2-.2.4-.4.6-.5-.4-1.1-.9-2.1-1.5-3.1-.1.1-.1.2-.2.2l-.1.1c-.8.7-2 .8-3.6.2-1.7-.6-3.3-1.6-4.9-3.2-1.9-1.4-2.9-3-3.5-4.7z"/><path fill="#D0BF98" d="M126 91.3c0-1.5-.2-3-.6-4.4-.2-.8-.4-1.5-.7-2.3-.2.2-.4.4-.6.5-2.7 2.1-8.1 4-16.3 5.6-12.1 2.5-26.7 3.7-43.9 3.7-17.1 0-31.8-1.2-43.9-3.7-8.2-1.6-13.6-3.5-16.2-5.6-.2-.2-.5-.4-.7-.5-.1.8-.4 1.6-.6 2.4-.3 1.4-.5 2.8-.5 4.3v.2c0 4.1 5.4 7.6 16.2 10.6.6.2 1.2.3 1.9.5 6.9 1.8 14.6 3 23 3.8.4 0 .8.1 1.1.1 6.2.5 12.7.8 19.7.8s13.5-.2 19.7-.8l1.2-.1c8.5-.7 16.1-2 23-3.8l1.9-.5c10.9-3 16.3-6.5 16.3-10.6v-.2z"/><path fill="#EEE1C5" d="M111 73.2c0 .2.1.5.2.8.6 1.7 1.7 3.3 3.2 4.8 1.6 1.6 3.2 2.7 4.9 3.2 1.6.6 2.8.5 3.6-.2.1 0 .1-.1.1-.1l.2-.2c1.4-1.6 2.1-3.4 2.1-5.5 0-2.2-.8-4.1-2.4-5.8-1.6-1.6-3.5-2.3-5.8-2.3s-4.1.8-5.7 2.3c-1.2-.7-2.4-1.5-3.7-2.2-9-4.9-19.4-7.9-31.2-9.2-4.1-.4-8.3-.7-12.7-.7-4.4 0-8.6.2-12.8.7-11.8 1.3-22.1 4.3-31.1 9.2-1.3.7-2.5 1.4-3.7 2.2-1.4-1.5-3.2-2.2-5.4-2.2-2.3 0-4.2.8-5.8 2.3-1.6 1.6-2.4 3.5-2.4 5.8 0 2.1.7 3.9 2.1 5.5l.2.2.1.1c.8.7 2 .8 3.6.2 1.7-.6 3.3-1.6 4.8-3.2 1.6-1.6 2.7-3.2 3.2-4.8.1-.3.2-.6.2-.8.1-.5.2-1 .2-1.4.9-.6 1.9-1.2 2.9-1.7 9-4.9 19.4-7.9 31.1-9.2 4.1-.4 8.4-.7 12.8-.7s8.6.2 12.7.7c11.8 1.3 22.2 4.3 31.2 9.2 1 .6 2 1.1 2.9 1.7.2.3.2.8.4 1.3z"/><path fill="#474F4C" d="M63 83c9.6 0 17.8-1.2 24.6-3.6 6.8-2.4 10.2-5.3 10.2-8.7 0-2.3-3.4-4.3-10.2-6-6.8-1.6-15-2.5-24.6-2.5-9.6 0-17.8.8-24.7 2.5-6.8 1.7-10.2 3.7-10.2 6 0 3.4 3.4 6.3 10.2 8.7 6.8 2.4 15 3.6 24.7 3.6z"/><path fill="#EEE1C5" d="M41 37c.1-5.8 2.3-10.8 6.4-15 4.3-4.3 9.5-6.5 15.5-6.5s11.2 2.2 15.5 6.5c4.2 4.1 6.3 9.1 6.5 15v-1.5c0-6-2.2-11.2-6.5-15.5-4.3-4.3-9.4-6.5-15.5-6.5s-11.1 2.3-15.4 6.5c-4.3 4.3-6.4 9.4-6.4 15.5v1.5z"/><path fill="#E0D1AF" d="M47.5 22c-4.1 4.1-6.3 9.1-6.4 15v33.9c0 2 2.2 3.7 6.4 5.1 4.3 1.5 9.5 2.2 15.5 2.2s11.2-.7 15.5-2.2c4.3-1.4 6.4-3.1 6.5-5.1v-33.9c-.1-5.8-2.3-10.8-6.5-15-4.3-4.3-9.4-6.5-15.5-6.5s-11.2 2.3-15.5 6.5z"/><path fill="#AF9F7A" d="M66.8 46.7c-1.1.8-2.3 1.2-3.8 1.2s-2.8-.4-3.8-1.2c-.6-.5-1-1-1.2-1.6-.1-.3-.2-.5-.5-.5-.3-.1-.5-.2-.8-.1-.3.1-.5.2-.6.5-.1.2-.2.5-.1.8.3 1 .9 1.8 1.9 2.5 1.4 1.1 3.1 1.6 5.1 1.6 2 0 3.7-.5 5-1.6.9-.7 1.5-1.5 2-2.5.1-.3.1-.5 0-.8-.2-.3-.4-.4-.6-.5-.3-.1-.5-.1-.8 0-.3.1-.4.3-.5.5-.3.6-.7 1.2-1.3 1.7m-17.6-9.4c0 1.3.5 2.5 1.4 3.4 1 1 2.1 1.5 3.4 1.5h18c1.3 0 2.4-.5 3.3-1.5 1-.9 1.5-2.1 1.5-3.4s-.5-2.5-1.5-3.5c-.8-.8-1.7-1.3-2.7-1.4l-.8-.1h-.2v.1h-17.5v-.1h-.2c-.1 0-.2 0-.2.1-1.2.1-2.2.5-3.2 1.4-.9 1-1.3 2.2-1.3 3.5z"/><path fill="#C2E9F2" d="M29.8 35.7v1.8c.1 1.9.4 3.8.8 5.6 1.3 5.9 4.2 11.1 8.8 15.7 6.3 6.3 14 9.5 23 9.5s16.7-3.2 23.1-9.5c4.5-4.6 7.5-9.8 8.8-15.7.4-1.8.6-3.7.7-5.6v-3.6c-.4-8.2-3.5-15.3-9.5-21.2-6.5-6.4-14.1-9.5-23.1-9.5s-16.7 3.2-23 9.5c-6 5.9-9.2 13-9.6 21.2v1.8m5 0v-1.8c.4-6.8 3.1-12.7 8.1-17.7 5.4-5.4 11.8-8.1 19.5-8.1 7.6 0 14.1 2.7 19.5 8.1 4.9 4.9 7.6 10.8 8 17.7v3.6c-.1 2-.4 3.8-.9 5.6-1.2 4.5-3.6 8.6-7.1 12.2-5.4 5.4-12 8-19.5 8-7.6 0-14.1-2.7-19.5-8-3.6-3.6-6-7.6-7.2-12.2-.5-1.8-.8-3.7-.9-5.6v-1.8z"/><path fill="#C2E9F2" fill-opacity=".2" d="M34.8 33.9v3.6c.1 2 .4 3.8.9 5.6 1.2 4.5 3.6 8.6 7.2 12.2 5.4 5.4 11.8 8 19.5 8 7.6 0 14.1-2.7 19.5-8 3.6-3.6 6-7.6 7.1-12.2.5-1.8.8-3.7.9-5.6v-3.6c-.4-6.8-3.1-12.7-8-17.7-5.4-5.4-12-8.1-19.5-8.1-7.6 0-14.1 2.7-19.5 8.1-5 5-7.7 10.9-8.1 17.7m9.9-15.9c4.9-5 10.8-7.4 17.7-7.4 6.9 0 12.9 2.5 17.8 7.4 4.5 4.5 6.9 9.8 7.2 16v3.3c-.1 2-.4 3.9-1 5.8-13.5 5-29.6 5-48.2 0-.5-1.8-.9-3.8-1-5.8v-3.3c.5-6.2 2.9-11.5 7.5-16z"/><path fill="#C2E9F2" fill-opacity=".302" d="M44.7 18c-4.6 4.5-7 9.8-7.4 16v3.3c.1 2 .5 4 1 5.8 18.6 5 34.6 5 48.2 0 .5-1.8.8-3.8 1-5.8v-3.3c-.4-6.2-2.8-11.5-7.2-16-4.9-4.9-10.9-7.4-17.8-7.4-7 .1-12.9 2.5-17.8 7.4z"/><path fill="#5A6662" d="M77.2 57.9c-.7-.3-1.4-.4-2.3-.4-.9 0-1.6.2-2.2.5-.6.3-.9.7-.8 1.2v8.399999999999999c0 2.5-.9 4.6-2.6 6.3-1.8 1.8-3.9 2.6-6.3 2.6-2.5 0-4.6-.9-6.3-2.6-1.8-1.7-2.7-3.8-2.7-6.3v-8.399999999999999c0-.4-.2-.8-.8-1.2s-1.3-.5-2.2-.5c-.9 0-1.6.1-2.3.4-.6.3-1 .7-1 1.1v8.6c0 4.2 1.5 7.8 4.5 10.8 3 3 6.6 4.5 10.8 4.5 4.2 0 7.8-1.5 10.8-4.5 3-3 4.5-6.6 4.5-10.8v-8.6c-.1-.4-.5-.8-1.1-1.1z"/><path fill="#E0D1AF" d="M55.5 74.8c1.4-1.3 2-2.9 2-4.8s-.7-3.5-2-4.8c-1.3-1.3-2.9-2-4.8-2h-.8c-.5 0-1 .1-1.5.3-3.4.7-6.3.8-8.6.5v4.8c.1 2.6 2.7 5.1 7.7 7.3l.6.3c.8.3 1.7.4 2.7.4 1.7 0 3.3-.6 4.7-2m20.5-11.6h-.8c-1.9 0-3.5.7-4.8 2s-2 3-2 4.8c0 1.9.7 3.5 2 4.8 1.3 1.3 3 2 4.8 2 .9 0 1.8-.1 2.6-.4l.6-.3c5-2.3 7.6-4.7 7.7-7.3v-4.8c-2.4.4-5.2.2-8.7-.5-.4-.1-.9-.2-1.4-.3z"/></svg>