<svg xmlns="http://www.w3.org/2000/svg" width="128" height="128" viewBox="0 0 128 128"><path fill="#6FC4A9" d="M17 105.7c2.4 4 6.3 7.7 11.9 10.9 9.7 5.7 21.4 8.6 35.1 8.6s25.4-2.9 35.1-8.6c5.5-3.3 9.5-6.9 11.9-10.9-1 .3-2 .5-3.1.8-12.1 3-26.8 4.5-43.9 4.5-17.1 0-31.8-1.5-43.9-4.6-1.1-.2-2.1-.5-3.1-.7m47-45.7c-4.4 0-8.7.2-12.8.7-11.7 1.3-22.1 4.3-31.1 9.2-1 .5-2 1.1-2.9 1.7 0 .4 0 .9-.2 1.4-.1.2-.1.5-.2.8-.6 1.7-1.7 3.3-3.2 4.9-1.6 1.6-3.2 2.7-4.8 3.2-1.6.6-2.8.5-3.6-.2l-.1-.1-.2-.2c-.6 1-1.1 2-1.5 3.1l.6.6c2.1 1.7 5.9 3.2 11.5 4.7 1.5.3 3 .7 4.7 1 12.1 2.5 26.8 3.7 43.9 3.7 17.1 0 31.8-1.2 43.8-3.7 1.7-.3 3.2-.7 4.7-1.1 5.6-1.4 9.5-2.9 11.6-4.6.2-.2.4-.3.6-.6-.4-1.1-.9-2.1-1.5-3.1l-.2.2s-.1.1-.2.1c-.8.7-1.9.8-3.5.2-1.7-.6-3.3-1.7-4.9-3.2-1.6-1.6-2.7-3.2-3.2-4.9-.1-.3-.2-.5-.2-.8-.1-.5-.2-1-.2-1.4-.9-.6-1.9-1.1-3-1.7-9-4.9-19.4-7.9-31.1-9.2-4.2-.4-8.4-.7-12.8-.7z"/><path fill="#5CAA91" d="M20.1 102.4c-1.8-.5-3.5-.9-5.1-1.4.2.7.5 1.5.8 2.2.3.8.7 1.6 1.2 2.4.9.3 2 .5 3.1.8 12.1 3.1 26.8 4.6 43.9 4.6 17.1 0 31.8-1.5 43.8-4.6 1.1-.3 2.1-.5 3.1-.8.4-.8.8-1.6 1.1-2.4.3-.8.6-1.5.8-2.2-1.5.5-3.2.9-5.1 1.4-11.9 3.1-26.6 4.6-43.7 4.6s-31.8-1.5-43.9-4.6z"/><path fill="#67B69D" d="M20.1 90.7c-1.7-.3-3.2-.7-4.7-1-5.6-1.5-9.4-3-11.5-4.7-.2-.2-.4-.3-.6-.6-.3.8-.6 1.6-.8 2.4-.3 1.4-.5 2.9-.5 4.4v.2c0 3.6 4.3 6.8 13 9.6 1.5.5 3.2.9 5.1 1.4 12.1 3.1 26.8 4.6 43.9 4.6 17.1 0 31.8-1.5 43.8-4.6 1.8-.5 3.5-.9 5.1-1.4 8.8-2.8 13.1-6 13.1-9.7v-.2c0-1.5-.2-3-.6-4.4-.2-.8-.4-1.5-.7-2.3l-.6.6c-2.1 1.7-6 3.2-11.6 4.6-1.5.4-3 .7-4.7 1.1-12.1 2.5-26.7 3.7-43.8 3.7-17.1-.1-31.8-1.3-43.9-3.7z"/><path fill="#89D9C0" d="M76.7 58.7c-4.1-.4-8.3-.7-12.7-.7s-8.7.2-12.8.7c-11.7 1.3-22.1 4.3-31.1 9.2-1.3.7-2.5 1.4-3.7 2.1-1.6-1.5-3.4-2.3-5.6-2.3-2.3 0-4.2.8-5.8 2.3-1.6 1.6-2.4 3.5-2.4 5.8 0 2.1.7 3.9 2.1 5.5.1.1.1.2.2.2l.1.1c.8.7 2 .8 3.6.2 1.7-.6 3.3-1.7 4.8-3.2 1.6-1.6 2.7-3.2 3.2-4.9.1-.3.2-.6.2-.8.1-.5.2-1 .2-1.4.9-.6 1.9-1.2 2.9-1.7 9-4.9 19.4-7.9 31.1-9.2 4.3-.3 8.6-.6 13-.6s8.6.2 12.7.7c11.8 1.3 22.1 4.3 31.1 9.2l3 1.7c0 .4 0 .9.2 1.4 0 .2.1.5.2.8.6 1.7 1.7 3.3 3.2 4.9 1.6 1.6 3.2 2.7 4.9 3.2 1.6.6 2.8.5 3.5-.2l.2-.1.2-.2c1.4-1.6 2.1-3.4 2.1-5.5 0-2.2-.8-4.2-2.3-5.8-1.6-1.6-3.5-2.3-5.8-2.3s-4.1.8-5.7 2.3c-1.2-.7-2.4-1.4-3.7-2.1-9-5-19.3-8-31.1-9.3z"/><path fill="#474F4C" d="M29.1 70.4c0 3.4 3.4 6.3 10.2 8.7 6.8 2.4 15 3.6 24.7 3.6 9.6 0 17.8-1.2 24.6-3.6 6.8-2.4 10.2-5.3 10.2-8.7 0-2.3-3.4-4.3-10.2-5.9-6.8-1.6-15-2.5-24.6-2.5-9.6 0-17.8.8-24.7 2.5-6.8 1.7-10.2 3.7-10.2 5.9z"/><path fill="#6FC4A9" d="M64 15.3c-6 0-11.2 2.2-15.5 6.5-4.1 4.1-6.3 9.1-6.4 15v33.9c0 2 2.2 3.7 6.4 5.2 4.3 1.5 9.5 2.2 15.5 2.2s11.2-.7 15.5-2.2c4.3-1.4 6.4-3.2 6.5-5.2v-34c-.1-5.8-2.3-10.8-6.5-15-4.3-4.3-9.5-6.4-15.5-6.4z"/><path fill="#89D9C0" d="M42.1 35.2v1.5c.1-5.8 2.3-10.8 6.4-15 4.3-4.3 9.5-6.5 15.5-6.5s11.2 2.2 15.5 6.5c4.2 4.1 6.3 9.1 6.5 15v-1.5c0-6-2.2-11.2-6.5-15.5-4.3-4.3-9.4-6.5-15.5-6.5s-11.2 2.2-15.5 6.5c-4.3 4.3-6.4 9.5-6.4 15.5z"/><path fill="#347E67" d="M70.5 54.1c-.3-.1-.5-.1-.8 0-.3.1-.4.3-.5.5-.3.6-.8 1.2-1.4 1.7-1.1.8-2.3 1.2-3.8 1.2-1.6 0-2.9-.4-4-1.2-.6-.5-1-1-1.2-1.7-.1-.3-.2-.5-.4-.5-.3-.1-.6-.2-.9-.1-.3.1-.5.2-.5.5-.1.2-.2.5-.1.8.3 1 .9 1.8 2 2.5 1.4 1.1 3.2 1.7 5.2 1.7s3.7-.6 5.1-1.7c.9-.7 1.6-1.6 2-2.5.1-.3.1-.5 0-.8-.3-.1-.5-.3-.7-.4m6-10.8c-1-1-2.1-1.5-3.5-1.5s-2.6.5-3.6 1.5-1.5 2.2-1.5 3.6.5 2.5 1.5 3.5 2.2 1.5 3.6 1.5 2.5-.5 3.5-1.5 1.5-2.1 1.5-3.5c.1-1.4-.4-2.6-1.5-3.6m-21.5-1.5c-1.4 0-2.7.5-3.7 1.5-.9 1-1.4 2.2-1.4 3.6s.5 2.5 1.4 3.5c1 1 2.3 1.5 3.7 1.5 1.3 0 2.5-.5 3.5-1.5s1.5-2.1 1.5-3.5c0-1.3-.5-2.5-1.5-3.6-1-1-2.1-1.5-3.5-1.5z"/><path fill="#C2E9F2" d="M96 37.1v-3.6c-.4-8.2-3.5-15.3-9.5-21.2-6.4-6.3-14.1-9.4-23.1-9.4s-16.7 3.2-23 9.5c-6 5.9-9.2 13-9.6 21.2l-.1 1.8c0 .6 0 1.2.1 1.8.1 1.9.4 3.8.8 5.6 1.3 5.9 4.2 11.1 8.8 15.7 6.3 6.3 14 9.5 23 9.5s16.7-3.2 23.1-9.5c4.5-4.6 7.5-9.8 8.8-15.7.3-1.8.5-3.7.7-5.7m-5-3.5v3.6c-.1 2-.4 3.8-.9 5.6-1.2 4.5-3.6 8.6-7.1 12.2-5.4 5.4-12 8-19.5 8-7.6 0-14.1-2.7-19.5-8-3.6-3.6-6-7.6-7.2-12.2-.5-1.8-.8-3.7-.9-5.6l-.1-1.8c0-.6 0-1.2.1-1.8.4-6.8 3.1-12.7 8.1-17.7 5.4-5.4 11.8-8.1 19.5-8.1 7.6 0 14.1 2.7 19.5 8.1 4.9 5 7.5 10.9 8 17.7z"/><path fill="#C2E9F2" fill-opacity=".2" d="M91 35.4v-1.8c-.4-6.8-3.1-12.7-8-17.7-5.4-5.4-12-8.1-19.5-8.1-7.6 0-14.1 2.7-19.5 8.1-5 4.9-7.7 10.8-8.1 17.7l-.1 1.8c0 .6 0 1.2.1 1.8.1 2 .4 3.8.9 5.6 1.2 4.5 3.6 8.6 7.2 12.2 5.4 5.4 11.8 8 19.5 8 7.6 0 14.1-2.7 19.5-8 3.6-3.6 6-7.6 7.1-12.2.5-1.8.8-3.7.9-5.6v-1.8m-2.5 0v1.6c-.1 2-.4 3.9-1 5.8-13.5 5-29.6 5-48.2 0-.5-1.8-.9-3.8-1-5.8l-.1-1.6c0-.6 0-1.1.1-1.7.4-6.2 2.8-11.5 7.4-16 4.9-4.9 10.8-7.3 17.7-7.3 6.9 0 12.9 2.5 17.8 7.4 4.5 4.5 6.9 9.8 7.2 16 .1.5.1 1 .1 1.6z"/><path fill="#C2E9F2" fill-opacity=".302" d="M88.5 37v-3.3c-.4-6.2-2.8-11.5-7.2-16-4.9-4.9-10.9-7.4-17.8-7.4s-12.8 2.4-17.7 7.3c-4.5 4.5-7 9.8-7.4 16 0 .5-.1 1.1-.1 1.7 0 .5 0 1.1.1 1.6.1 2 .5 4 1 5.8 18.6 5 34.6 5 48.2 0 .4-1.7.7-3.7.9-5.7z"/><path fill="#5A6662" d="M75.9 57.2c-.9 0-1.6.2-2.2.5-.6.3-.9.7-.8 1.2v8.399999999999999c0 2.5-.9 4.6-2.6 6.3-1.8 1.8-3.9 2.6-6.3 2.6-2.5 0-4.6-.9-6.3-2.6-1.8-1.7-2.7-3.8-2.7-6.3v-8.399999999999999c0-.4-.2-.8-.8-1.2s-1.3-.5-2.2-.5c-.9 0-1.6.1-2.3.4-.6.3-1 .7-1 1.1v8.6c0 4.2 1.5 7.8 4.5 10.8 3 3 6.6 4.5 10.8 4.5 4.2 0 7.8-1.5 10.8-4.5 3-3 4.5-6.6 4.5-10.8v-8.6c0-.4-.4-.8-1-1.1-.8-.3-1.5-.4-2.4-.4z"/><path fill="#7DCAB1" d="M51.7 62.9h-.8c-.5 0-1 .1-1.5.3-3.4.7-6.3.8-8.6.5v4.7c.1 2.6 2.7 5.1 7.7 7.3l.6.3c.8.3 1.7.4 2.7.4 1.9 0 3.5-.7 4.8-2 1.4-1.3 2-2.9 2-4.8s-.7-3.5-2-4.9c-1.4-1.1-3-1.8-4.9-1.8m24.6 0c-1.9 0-3.5.7-4.8 2-1.3 1.3-2 2.9-2 4.9 0 1.9.7 3.5 2 4.8 1.3 1.3 3 2 4.8 2 .9 0 1.8-.1 2.6-.4l.6-.3c5-2.3 7.6-4.7 7.7-7.3v-4.7c-2.4.4-5.2.2-8.7-.5-.5-.2-1-.3-1.5-.3-.2-.2-.5-.2-.7-.2z"/></svg>